<?xml version="1.0" encoding="utf-8"?>
<!-- Svg Vector Icons : http://www.onlinewebfonts.com/icon -->
<!DOCTYPE svg PUBLIC "-//W3C//DTD SVG 1.1//EN" "http://www.w3.org/Graphics/SVG/1.1/DTD/svg11.dtd">
<svg version="1.1" xmlns="http://www.w3.org/2000/svg" xmlns:xlink="http://www.w3.org/1999/xlink" x="0px" y="0px" viewBox="0 0 1000 1000" enable-background="new 0 0 1000 1000" xml:space="preserve">
<metadata> Svg Vector Icons : http://www.onlinewebfonts.com/icon </metadata>
<g><g transform="matrix(1 0 0 -1 0 1008)"><path d="M520.4,998c24.6,0,46-4.2,64.2-12.6s32.4-19.3,42.8-32.6c10.4-13.3,18.6-29.7,24.8-49.1c6.2-19.4,10-38.4,11.7-56.9c1.6-18.5,2.4-39.1,2.4-61.7l-1-38.9c0-22,5.8-44.7,17.5-68.1c11.7-23.3,25.9-45.5,42.8-66.6s33.7-42.8,50.6-65.1c16.9-22.4,31.1-48.3,42.8-77.8c11.7-29.5,17.5-59.8,17.5-90.9c0-21.4-3.6-42.1-10.7-62.2c7.8-3.9,13-7.1,15.6-9.7c9.1-9.1,15.7-23,19.9-41.8c4.2-18.8,8.9-31.8,14.1-38.9c19.4-27.2,29.2-45,29.2-53.5c0-12.3-8.1-24.1-24.3-35.5c-16.2-11.3-35-22.7-56.4-34c-21.4-11.3-35.6-21.6-42.8-30.6l-4.9,4.9l4.9-4.9C751.2,35.8,718.1,18,681.8,18c-17.5,0-33.4,5.3-47.6,16c-14.3,10.7-23.7,24.5-28.2,41.3c-11.7-0.6-28.2,0.5-49.6,3.4c-21.4,2.9-36.9,4.4-46.7,4.4c-11.7,0-28.5-2.1-50.6-6.3c-22-4.2-38.9-6.3-50.6-6.3c-13-27.9-37.9-41.8-74.9-41.8c-25.3,0-52.5,7.8-81.7,23.3l2.9,5.8l-2.9-5.8c-9.1,4.5-27.9,8.6-56.4,12.2s-52.3,9.2-71.5,17c-19.1,7.8-28.7,20.4-28.7,37.9c0,6.5,1.6,15.4,4.9,26.7s4.9,19.9,4.9,25.8c0,5.2-0.8,13.6-2.4,25.3c-1.6,11.7-2.4,20.1-2.4,25.3c0,15.6,4.2,27.2,12.6,35c8.4,7.8,19.3,13.9,32.6,18.5c13.3,4.5,22.5,9.1,27.7,13.6c3.9,3.9,9.1,10.4,15.6,19.4s12,15.6,16.5,19.4c-4.5,31.8-2.1,63,7.3,93.8c9.4,30.8,22.7,58.7,39.9,83.6c17.2,25,34.8,49.6,53,73.9c18.1,24.3,33.7,51,46.7,80.2c13,29.2,19.4,58,19.4,86.5c0,9.7-0.6,24-1.9,42.8c-1.3,18.8-1.9,32.7-1.9,41.8C367.8,942.3,418.7,998,520.4,998z M541.8,862.9h-1c-14.9,0-26.9-6.8-36-20.4c-9.1-13.6-13-27.9-11.7-42.8l1-10.7c5.2-1.3,12.3-3.9,21.4-7.8c-1.9,29.2,5.5,43.8,22.4,43.8c7.1,0,12.5-3.6,16-10.7c3.6-7.1,5.3-14.6,5.3-22.4c0-9.7-2.9-19.1-8.7-28.2c9.1-3.2,17.5-6.5,25.3-9.7c9.7,12.3,14.6,27.9,14.6,46.7c0,14.9-4.5,29-13.6,42.3C567.7,856.2,556.1,862.9,541.8,862.9z M421.2,853.1c-22,0-33.1-18.8-33.1-56.4c0-18.8,5.8-33.4,17.5-43.7l11.7,8.8c-7.8,5.8-11.7,15.6-11.7,29.2c0,7.1,1.9,14.3,5.8,21.4l7.8,4.9h1l7.8-2.9c6.5-7.8,9.7-15.9,9.7-24.3v-10.7c7.1,5.2,13.9,8.4,20.4,9.7v11.7c0,11.7-3.6,23.3-10.7,35C440.4,847.3,431.6,853.1,421.2,853.1z M475.7,784.1c-10.4,0-27.9-8.4-52.5-25.3c-24.6-16.9-36.9-29.8-36.9-38.9c0-11.7,12.2-26.1,36.5-43.3c24.3-17.2,42.6-25.8,54.9-25.8c14.3,0,36.6,8.9,67.1,26.7c30.5,17.8,45.7,33.2,45.7,46.2c0,10.4-16,23-48.1,37.9S488,784.1,475.7,784.1z M571,727.7v-6.8c-8.4-2.6-23.5-10.2-45.2-22.8c-21.7-12.6-40-19-54.9-19c-8.4,0-23,4.9-43.7,14.6c-20.7,9.7-30.8,17.8-30.1,24.3v7.8c3.2-0.6,8.4-4.4,15.6-11.2c7.1-6.8,15.6-13.1,25.3-19c9.7-5.8,20.7-8.8,33.1-8.8c15.6,0,34.7,6.8,57.4,20.4C550.9,720.9,565.1,727.7,571,727.7z M590.4,701.5c-6.5-9.1-24.1-20.9-53-35.5s-49.1-21.9-60.8-21.9c-9.7,0-18.6,1.9-26.7,5.8c-8.1,3.9-17.5,10-28.2,18.5c-10.7,8.4-18,13.9-21.9,16.5c-1.3-33.1-10.2-68.9-26.7-107.4c-16.5-38.6-32.9-77.3-49.1-116.2c-16.2-38.9-24.6-75.2-25.3-108.9c-14.3,18.1-21.4,39.9-21.4,65.1c0,16.9,3.7,35.3,11.2,55.4c7.5,20.1,14.9,37.3,22.4,51.5c7.5,14.3,11.2,22.4,11.2,24.3c0,0.6-0.3,1-1,1h-1c-37.6-62.9-56.4-112.1-56.4-147.8c0-18.8,4.9-36,14.6-51.5c9.7-15.6,21.6-28.4,35.5-38.4c13.9-10,27.7-19.8,41.3-29.2c13.6-9.4,25.3-20.1,35-32.1c9.7-12,14.6-25.1,14.6-39.4c0-9.1-3.2-15.9-9.7-20.4c-6.5-4.5-14.3-6.5-23.3-5.8c2.6-4.5,7.1-11,13.6-19.4c6.5-8.4,11-14.6,13.6-18.5c28.5-19.4,60-29.2,94.3-29.2c44.1,0,85.6,14.3,124.4,42.8c8.4,25.3,13,43.8,13.6,55.4c0.6,16.9,1.3,29.3,1.9,37.4c0.6,8.1,2.3,19.6,4.9,34.5c2.6,14.9,7.5,26.9,14.6,36c7.1,9.1,16.2,15.9,27.2,20.4c3.2,23.3,14.6,35,34,35c14.3,0,31.9-5.5,53-16.5c21.1-11,31.6-23,31.6-36l-1-1.9v-4.9v-1.9h7.8c1.3,5.2,1.9,9.1,1.9,11.7c0,20.1-20.4,38.6-61.3,55.4c2.6,9.7,3.9,20.4,3.9,32.1c0,25.9-6.8,52.7-20.4,80.2s-30.8,50.4-51.5,68.5c-1.9,0.6-2.9-0.3-2.9-2.9l7.8-8.8c35-36.9,52.5-77.1,52.5-120.6c0-14.3-2.6-28.2-7.8-41.8c-9.1,1.3-15.9,1.9-20.4,1.9c-6.5,34.4-25.3,85.6-56.4,153.6C619.6,615.9,599.5,667.1,590.4,701.5z M711,368c-14.3,0-21.4-9.1-21.4-27.2c0-11,2.8-21.4,8.3-31.1c5.5-9.7,13.4-14.6,23.8-14.6c9.1,0,19.3,3.9,30.6,11.7c11.3,7.8,17,16.2,17,25.3s-7.3,17.3-21.9,24.8S720.7,368,711,368z M679.9,331.1c-12.3-5.8-21.7-19.8-28.2-41.8c-5.2-21.4-7.8-46-7.8-73.9c0-13.6-4.4-33.9-13.1-60.8c-8.8-26.9-13.1-47.5-13.1-61.7c0-17.5,6.2-32.2,18.5-44.2c12.3-12,27.2-18,44.7-18c31.8,0,61.6,16.5,89.4,49.6c6.5,7.8,20.1,17.7,40.8,29.7c20.7,12,39.4,23.5,55.9,34.5s24.8,19.8,24.8,26.3c0,9.7-8.8,25-26.3,45.7c-6.5,7.8-11.3,19.8-14.6,36c-3.2,16.2-7.9,29.3-14.1,39.4c-6.2,10-17.7,14.7-34.5,14.1h-12.6c-19.4-22-40.8-33.1-64.2-33.1c-13.6,0-24.3,5.8-32.1,17.5C685.7,301.9,681.2,315.5,679.9,331.1z M237.5,329.1c-10.4,0-19.4-4.5-27.2-13.6c-2.6-3.2-6.8-8.9-12.6-17c-5.8-8.1-10.7-14.1-14.6-18c-5.8-5.2-17-10.9-33.5-17s-27.4-14.1-32.6-23.8c-2.6-4.5-3.9-10.4-3.9-17.5c0-5.2,1-13.3,2.9-24.3c1.9-11,2.9-19.4,2.9-25.3c0-5.8-1.8-14.6-5.3-26.3c-3.6-11.7-5.3-20.7-5.3-27.2c0-16.2,11-26.6,33.1-31.1c7.8-1.3,20.1-2.9,36.9-4.9c16.9-1.9,31.6-4.4,44.2-7.3c12.6-2.9,24.5-7.3,35.5-13.1c27.2-13.6,52.8-20.4,76.8-20.4c20.1,0,36.3,5.2,48.6,15.6c12.3,10.4,18.5,25.3,18.5,44.7c0,13.6-10,33.7-30.1,60.3c-2.6,3.9-7.9,10.5-16,19.9c-8.1,9.4-14.7,17.7-19.9,24.8c-5.2,7.1-9.4,14.3-12.6,21.4c-14.9,32.4-27.2,55.4-36.9,69C270.6,318.1,254.4,328.5,237.5,329.1z"/></g></g>
</svg>